<?xml version="1.0" encoding="utf-8"?>
<!-- Generator: Adobe Illustrator 16.0.0, SVG Export Plug-In . SVG Version: 6.00 Build 0)  -->
<!DOCTYPE svg PUBLIC "-//W3C//DTD SVG 1.1//EN" "http://www.w3.org/Graphics/SVG/1.1/DTD/svg11.dtd">
<svg version="1.1" id="Layer_1" xmlns="http://www.w3.org/2000/svg" xmlns:xlink="http://www.w3.org/1999/xlink" x="0px" y="0px"
	 width="281.695px" height="284.826px" viewBox="0 0 281.695 284.826" enable-background="new 0 0 281.695 284.826"
	 xml:space="preserve">
<rect x="54.347" y="92.913" fill="#FFFFFF" stroke="#000000" stroke-miterlimit="10" width="176" height="111"/>
<g>
	<path fill="#92D300" d="M142.735,17.226c-69.394,0-125.647,56.255-125.647,125.649c0,69.392,56.255,125.649,125.647,125.649
		c69.395,0,125.648-56.26,125.648-125.649C268.384,73.481,212.129,17.226,142.735,17.226z M200.91,179.231l-26.901-29.049h-25.192
		v29.049h-14.391v-29.049H81.469v29.049H67.079v-72.718h14.391v29.817h52.956v-29.817l52.322,0.004
		c6.396,0.094,14.114,0.199,20.398,5.868c2.364,2.059,6.494,6.804,6.494,15.551c0,17.407-19.476,19.777-24.315,20.6l29.066,30.695
		H200.91L200.91,179.231z"/>
	<path fill="#92D300" d="M194.636,132.629c1.227-1.574,1.648-3.426,1.648-5.143c0-1.849-0.48-3.693-1.443-5.136
		c-2.188-3.491-5.689-3.491-8.84-3.562h-37.188v17.542h34.518C187.099,136.33,191.895,136.258,194.636,132.629z"/>
</g>
</svg>
